PathFileType	4	(X/Y/Z)	 s10c0203.trc
DataRate	CameraRate	NumFrames	NumMarkers	Units	OrigDataRate	OrigDataStartFrame	OrigNumFrames
200	200	4	49	mm	200	1	2000
Frame#	Time	racr			lacr			c7			jug			rlel			rdr			llel			ldr			s2			lic			ric			lasi			rasi			rpsi			lpsi			rgt			lgt			rth1			rth2			rth3			rth4			rlfc			rmfc			rsh1			rsh2			rsh3			rsh4			rlmal			rmmal			rcal			rtoe			rmt5			lth1			lth2			lth4			lth3			llfc			lmfc			llmal			lcal			lmt5			lsh1			lsh2			lsh3			lsh4			ltoe			SBIKE			LBIKE			RBIKE			
		X1	Y1	Z1	X2	Y2	Z2	X3	Y3	Z3	X4	Y4	Z4	X5	Y5	Z5	X6	Y6	Z6	X7	Y7	Z7	X8	Y8	Z8	X9	Y9	Z9	X10	Y10	Z10	X11	Y11	Z11	X12	Y12	Z12	X13	Y13	Z13	X14	Y14	Z14	X15	Y15	Z15	X16	Y16	Z16	X17	Y17	Z17	X18	Y18	Z18	X19	Y19	Z19	X20	Y20	Z20	X21	Y21	Z21	X22	Y22	Z22	X23	Y23	Z23	X24	Y24	Z24	X25	Y25	Z25	X26	Y26	Z26	X27	Y27	Z27	X28	Y28	Z28	X29	Y29	Z29	X30	Y30	Z30	X31	Y31	Z31	X32	Y32	Z32	X33	Y33	Z33	X34	Y34	Z34	X35	Y35	Z35	X36	Y36	Z36	X37	Y37	Z37	X38	Y38	Z38	X39	Y39	Z39	X40	Y40	Z40	X41	Y41	Z41	X42	Y42	Z42	X43	Y43	Z43	X44	Y44	Z44	X45	Y45	Z45	X46	Y46	Z46	X47	Y47	Z47	X48	Y48	Z48	X49	Y49	Z49	
1	0.0050	415.979988	1343.913564	-25.514080	452.091660	1353.285112	-359.866876	416.228610	1384.675461	-193.385016	385.687607	1244.317367	-193.600574	477.011294	1087.056483	51.896895	618.532807	912.184010	9.976917	504.163280	1085.328640	-453.021460	644.821982	910.106075	-394.072076	-45.853132	1114.008469	-215.544742	127.730015	1084.773797	-361.548223	133.718024	1088.256804	-84.439663	136.944947	995.583280	-336.389497	124.211343	1007.642809	-83.431447	4.469874	1144.916837	-161.468362	15.796640	1145.506529	-273.548792	4.173678	1026.495712	-13.701226	-6.702915	989.482202	-414.319389	84.329053	918.417674	5.920593	168.268488	892.744984	-7.842182	226.311983	829.621104	-12.464925	185.017535	924.238805	-20.970907	322.342778	768.673561	-31.146196	317.591519	756.465310	-148.500789	267.854025	664.609059	-7.387337	274.660770	576.243061	-18.372796	237.394538	498.685971	-26.729455	306.848501	573.872570	-40.360073	218.476180	396.622034	-45.339273	245.856114	416.866927	-122.519119	170.024199	373.429829	-96.021074	411.113864	356.677345	-79.440400	327.386445	327.177117	-21.357213	64.251047	878.150599	-426.034623	140.584415	839.044805	-412.029511	163.580285	865.484729	-401.532281	188.130022	764.286553	-407.610253	263.128528	681.787271	-388.984088	261.574188	675.376494	-266.471804	-30.144241	446.023857	-377.680322	-94.640895	447.997108	-333.973463	22.384272	316.531255	-397.801564	160.035728	617.945214	-414.149328	118.397331	540.933093	-398.870900	40.854860	497.635245	-394.970564	139.591246	523.897125	-372.435626	100.616489	302.472847	-344.538730	-204.022993	832.646011	-224.691346	-78.373338	83.141111	-422.751637	-102.259129	81.469856	-24.102195	
2	0.0100	415.972808	1343.878938	-25.530996	452.103477	1353.278763	-359.892160	416.225631	1384.651722	-193.391159	385.701790	1244.289918	-193.621795	476.990590	1087.031692	51.865931	618.549975	912.179722	10.029070	504.191319	1085.331559	-453.059399	644.834116	910.111990	-394.088734	-45.830327	1114.022032	-215.593910	127.740663	1084.773496	-361.585621	133.704784	1088.322360	-84.448953	136.946838	995.575928	-336.411960	124.217346	1007.716907	-83.449528	4.426018	1144.932648	-161.484668	15.794290	1145.499916	-273.597379	4.906142	1026.470830	-13.734238	-6.683523	989.484342	-414.352978	84.012430	917.908643	6.476151	167.494922	891.507350	-7.572353	226.332887	829.706522	-12.428831	185.023919	924.374043	-21.022983	322.370580	768.740172	-31.111831	317.618143	756.547752	-148.468753	267.878321	664.672868	-7.371659	274.691257	576.303506	-18.365870	237.420810	498.763617	-26.736524	306.887750	573.937781	-40.314525	218.496780	396.691024	-45.326954	245.859410	416.932265	-122.527034	170.014350	373.633609	-96.000147	411.118900	356.711146	-79.431785	327.395231	327.230010	-21.361971	64.276197	878.136087	-426.051147	140.602801	839.012429	-412.024251	163.611665	865.454244	-401.537957	188.137444	764.272732	-407.622197	263.149638	681.772279	-388.953659	261.570096	675.356631	-266.436366	-30.114308	445.986776	-377.678965	-94.618089	447.947901	-333.963716	22.391120	316.459699	-397.810258	160.055881	617.908248	-414.135839	118.421524	540.894731	-398.878165	40.888017	497.606069	-394.965780	139.615409	523.870115	-372.422784	100.605325	302.373488	-344.520114	-204.010817	832.637772	-224.675549	-78.375274	83.149406	-422.749202	-102.252860	81.482714	-24.079645	
3	0.0150	415.973702	1343.868505	-25.566227	452.097091	1353.265074	-359.903446	416.236648	1384.647071	-193.425106	385.662370	1244.296244	-193.655138	476.970304	1087.020749	51.853380	618.539080	912.187043	10.081309	504.212072	1085.333039	-453.102019	644.848712	910.106877	-394.081462	-45.831267	1114.021171	-215.634149	127.735224	1084.762820	-361.610513	133.690639	1088.341156	-84.483536	136.968503	995.561959	-336.399121	124.218793	1007.726927	-83.452807	4.639393	1145.185180	-161.323736	15.809842	1145.502264	-273.639904	4.913133	1026.502417	-13.770960	-6.660719	989.458201	-414.375625	83.989666	917.990232	6.499727	167.499593	891.620367	-7.580808	226.325120	829.776251	-12.398825	185.002769	924.437143	-21.025125	322.381970	768.795364	-31.085335	317.659683	756.686772	-148.438579	267.900976	664.760346	-7.354434	274.704362	576.353500	-18.351358	237.429487	498.862922	-26.729065	306.891552	574.004237	-40.269892	218.496084	396.780696	-45.307264	245.882763	416.978483	-122.517499	170.025962	373.689692	-96.020867	411.128675	356.754996	-79.424789	327.388653	327.297399	-21.362149	64.303240	878.122420	-426.054392	140.622224	838.996373	-412.025470	163.626206	865.435218	-401.540087	188.153969	764.237868	-407.609231	263.157033	681.735348	-388.952864	261.569075	675.333850	-266.434855	-30.097837	445.937770	-377.667954	-94.600577	447.909034	-333.965581	22.397526	316.400428	-397.796586	160.074779	617.875618	-414.105528	118.444591	540.864997	-398.855765	40.911843	497.540874	-394.960125	139.641530	523.829953	-372.414019	100.627351	302.323492	-344.534154	-204.012252	832.638887	-224.683241	-78.363189	83.136002	-422.742441	-102.260151	81.481892	-24.078185	
4	0.0200	415.949472	1343.857356	-25.596422	452.103757	1353.247766	-359.935192	415.893628	1384.591081	-193.350137	386.366384	1244.016084	-193.426547	476.936381	1087.038779	51.798467	618.550193	912.183861	10.137406	504.749234	1085.362308	-452.251540	644.865778	910.106912	-394.109667	-44.735645	1113.758948	-217.555426	127.733977	1084.769541	-361.664945	134.009168	1088.511492	-84.512660	137.462499	996.011555	-336.576080	124.210857	1007.751972	-83.476931	4.670096	1144.768565	-161.646677	15.803365	1145.488687	-273.671537	4.908097	1026.536665	-13.788894	-6.641105	989.432276	-414.396373	83.979139	918.055533	6.495572	167.633916	892.827890	-8.529553	226.395534	829.843962	-12.365442	185.072359	924.340867	-21.122755	322.407365	768.869843	-31.059798	315.990186	756.275639	-148.126239	267.880787	664.881959	-7.334582	274.860053	576.598770	-18.372653	237.446183	498.921471	-26.715328	306.972990	574.080445	-40.196510	218.386598	396.968401	-45.217839	247.171962	417.961727	-123.178746	170.018506	373.791954	-95.988480	411.139626	356.809868	-79.425261	327.414325	327.362370	-21.366455	64.321986	878.095326	-426.057087	140.629544	838.966725	-412.029623	163.643243	865.622052	-401.778964	188.729116	764.616983	-407.697766	263.160379	681.696713	-388.912218	261.429817	675.495901	-266.463253	-30.077758	445.886734	-377.660518	-94.574903	447.847989	-333.968719	22.405826	316.342666	-397.809552	160.084453	617.842877	-414.102816	118.363092	539.835512	-399.055170	40.933250	497.517659	-394.956074	139.730515	523.969006	-372.748355	100.634037	302.267362	-344.533732	-204.494098	831.572346	-224.450510	-78.360681	83.163901	-422.740656	-102.258920	81.496374	-24.083508	
